<svg width="1200" height="630" viewBox="0 0 1200 630" fill="none" xmlns="http://www.w3.org/2000/svg">
<rect width="1200" height="630" fill="#F5F5F5"/>
<g clip-path="url(#clip0_0_1)">
<rect width="1200" height="610" fill="white"/>
<path d="M1069.25 40H1141.5C1143.75 40 1145.91 40.8956 1147.51 42.4896C1149.1 44.0837 1150 46.2457 1150 48.5V142H1069.25V40Z" fill="url(#paint0_linear_0_1)"/>
<path d="M1069.25 40H1141.5C1143.75 40 1145.91 40.8956 1147.51 42.4896C1149.1 44.0837 1150 46.2457 1150 48.5V142H1069.25V40Z" fill="url(#paint1_linear_0_1)"/>
<path d="M1058.62 144.125H1150V154.75H1147.87L1145.75 156.875H1058.62V144.125Z" fill="url(#paint2_linear_0_1)"/>
<path d="M1058.62 144.125H1150V154.75H1147.87L1145.75 156.875H1058.62V144.125Z" fill="url(#paint3_linear_0_1)"/>
<path d="M1062.87 40C1061.18 40 1059.56 40.6717 1058.36 41.8672C1057.17 43.0628 1056.5 44.6843 1056.5 46.375V150.5H1060.75C1060.75 149.373 1061.2 148.292 1061.99 147.495C1062.79 146.698 1063.87 146.25 1065 146.25H1069.25V40H1062.87Z" fill="url(#paint4_linear_0_1)"/>
<path d="M1062.87 40C1061.18 40 1059.56 40.6717 1058.36 41.8672C1057.17 43.0628 1056.5 44.6843 1056.5 46.375V150.5H1060.75C1060.75 149.373 1061.2 148.292 1061.99 147.495C1062.79 146.698 1063.87 146.25 1065 146.25H1069.25V40H1062.87Z" fill="url(#paint5_radial_0_1)"/>
<path d="M1062.87 142C1061.18 142 1059.56 142.672 1058.36 143.867C1057.17 145.063 1056.5 146.684 1056.5 148.375V152.625C1056.5 154.316 1057.17 155.938 1058.36 157.133C1059.56 158.329 1061.18 159 1062.87 159H1145.36C1148.13 159 1150 157.576 1150 154.75H1065C1063.87 154.75 1062.79 154.302 1061.99 153.505C1061.2 152.708 1060.75 151.627 1060.75 150.5C1060.75 149.373 1061.2 148.292 1061.99 147.495C1062.79 146.698 1063.87 146.25 1065 146.25H1150V142H1062.87Z" fill="url(#paint6_linear_0_1)"/>
<path d="M1082.31 52.7365L1078.39 48.8208C1077.33 47.7652 1075.62 47.7652 1074.57 48.8208C1073.51 49.8763 1073.51 51.5878 1074.57 52.6434L1078.48 56.5592C1079.54 57.6147 1081.25 57.6147 1082.31 56.5592C1083.36 55.5036 1083.36 53.7921 1082.31 52.7365Z" fill="#CEC8D4"/>
<path d="M1082.31 91.0471L1078.39 87.1313C1077.34 86.0757 1075.63 86.0757 1074.57 87.1313C1073.51 88.1869 1073.51 89.8984 1074.57 90.9539L1078.49 94.8697C1079.54 95.9253 1081.25 95.9253 1082.31 94.8697C1083.36 93.8141 1083.36 92.1027 1082.31 91.0471Z" fill="#CD62AB"/>
<path d="M1082.31 129.297L1078.39 125.382C1077.34 124.326 1075.63 124.326 1074.57 125.382C1073.51 126.437 1073.51 128.149 1074.57 129.204L1078.49 133.12C1079.54 134.176 1081.25 134.176 1082.31 133.12C1083.36 132.064 1083.36 130.353 1082.31 129.297Z" fill="#3E8FD4"/>
<path d="M1128.75 52.7365L1124.83 48.8208C1123.78 47.7652 1122.07 47.7652 1121.01 48.8208C1119.95 49.8763 1119.95 51.5878 1121.01 52.6434L1124.93 56.5592C1125.98 57.6147 1127.69 57.6147 1128.75 56.5592C1129.8 55.5036 1129.8 53.7921 1128.75 52.7365Z" fill="#CBC5D1"/>
<path d="M1128.75 91.0471L1124.84 87.1313C1123.78 86.0757 1122.07 86.0757 1121.01 87.1313C1119.96 88.1869 1119.96 89.8984 1121.01 90.9539L1124.93 94.8697C1125.99 95.9253 1127.7 95.9253 1128.75 94.8697C1129.81 93.8141 1129.81 92.1027 1128.75 91.0471Z" fill="#CB60A9"/>
<path d="M1128.75 129.297L1124.84 125.382C1123.78 124.326 1122.07 124.326 1121.01 125.382C1119.96 126.437 1119.96 128.149 1121.01 129.204L1124.93 133.12C1125.99 134.176 1127.7 134.176 1128.75 133.12C1129.81 132.064 1129.81 130.353 1128.75 129.297Z" fill="#3C8DD1"/>
<path d="M1088.35 52.7351L1092.26 48.8193C1093.32 47.7637 1095.03 47.7637 1096.09 48.8193C1097.14 49.8749 1097.14 51.5864 1096.09 52.6419L1092.17 56.5577C1091.12 57.6133 1089.4 57.6133 1088.35 56.5577C1087.29 55.5021 1087.29 53.7907 1088.35 52.7351Z" fill="#CE62AB"/>
<path d="M1088.35 91.0481L1092.27 87.1323C1093.32 86.0767 1095.03 86.0767 1096.09 87.1323C1097.14 88.1879 1097.14 89.8993 1096.09 90.9549L1092.17 94.8707C1091.12 95.9263 1089.41 95.9263 1088.35 94.8707C1087.29 93.8151 1087.29 92.1037 1088.35 91.0481Z" fill="#418FD3"/>
<path d="M1088.35 129.298L1092.27 125.383C1093.32 124.327 1095.03 124.327 1096.09 125.383C1097.14 126.438 1097.14 128.15 1096.09 129.205L1092.17 133.121C1091.12 134.177 1089.41 134.177 1088.35 133.121C1087.29 132.065 1087.29 130.354 1088.35 129.298Z" fill="#CDC7D3"/>
<path d="M1104.68 72.3413L1108.6 68.4255C1109.65 67.3699 1111.36 67.3699 1112.42 68.4255C1113.47 69.4811 1113.47 71.1925 1112.42 72.2481L1108.5 76.1639C1107.45 77.2195 1105.74 77.2195 1104.68 76.1639C1103.62 75.1083 1103.62 73.3969 1104.68 72.3413Z" fill="#CC61AA"/>
<path d="M1144.67 72.3427L1140.76 68.427C1139.7 67.3714 1137.99 67.3714 1136.93 68.427C1135.88 69.4826 1135.88 71.1939 1136.93 72.2495L1140.85 76.1653C1141.91 77.221 1143.62 77.221 1144.67 76.1653C1145.73 75.1097 1145.73 73.3983 1144.67 72.3427Z" fill="#CAC5D1"/>
<path d="M1122.11 69.5928H1127.65C1129.14 69.5928 1130.35 70.803 1130.35 72.2958C1130.35 73.7886 1129.14 74.9988 1127.65 74.9988H1122.11C1120.62 74.9988 1119.41 73.7886 1119.41 72.2958C1119.41 70.803 1120.62 69.5928 1122.11 69.5928Z" fill="#428DD1"/>
<path d="M1089.45 69.5928H1094.99C1096.48 69.5928 1097.69 70.803 1097.69 72.2958C1097.69 73.7886 1096.48 74.9988 1094.99 74.9988H1089.45C1087.96 74.9988 1086.75 73.7886 1086.75 72.2958C1086.75 70.803 1087.96 69.5928 1089.45 69.5928Z" fill="#CDC7D3"/>
<path d="M1104.68 110.595L1108.6 106.679C1109.65 105.623 1111.36 105.623 1112.42 106.679C1113.48 107.734 1113.48 109.446 1112.42 110.502L1108.5 114.417C1107.45 115.473 1105.74 115.473 1104.68 114.417C1103.63 113.362 1103.63 111.65 1104.68 110.595Z" fill="#3F8DD2"/>
<path d="M1144.67 110.593L1140.76 106.677C1139.7 105.622 1137.99 105.622 1136.93 106.677C1135.88 107.733 1135.88 109.444 1136.93 110.5L1140.85 114.416C1141.91 115.471 1143.62 115.471 1144.67 114.416C1145.73 113.36 1145.73 111.649 1144.67 110.593Z" fill="#CA5FA8"/>
<path d="M1079.96 69.5292V75.0669C1079.96 76.5597 1078.75 77.7699 1077.25 77.7699C1075.76 77.7699 1074.55 76.5597 1074.55 75.0669V69.5292C1074.55 68.0363 1075.76 66.8262 1077.25 66.8262C1078.75 66.8262 1079.96 68.0363 1079.96 69.5292Z" fill="#438FD4"/>
<path d="M1105.78 49.9875H1111.32C1112.81 49.9875 1114.02 51.1977 1114.02 52.6905C1114.02 54.1833 1112.81 55.3935 1111.32 55.3935H1105.78C1104.29 55.3935 1103.08 54.1833 1103.08 52.6905C1103.08 51.1977 1104.29 49.9875 1105.78 49.9875Z" fill="#448ED2"/>
<path d="M1122.11 107.843H1127.65C1129.14 107.843 1130.35 109.053 1130.35 110.546C1130.35 112.039 1129.14 113.249 1127.65 113.249H1122.11C1120.62 113.249 1119.41 112.039 1119.41 110.546C1119.41 109.053 1120.62 107.843 1122.11 107.843Z" fill="#CBC5D1"/>
<path d="M1105.78 88.3013H1111.32C1112.81 88.3013 1114.02 89.5115 1114.02 91.0043C1114.02 92.4971 1112.81 93.7073 1111.32 93.7073H1105.78C1104.29 93.7073 1103.08 92.4971 1103.08 91.0043C1103.08 89.5115 1104.29 88.3013 1105.78 88.3013Z" fill="#CFCAD6"/>
<path d="M1105.78 126.552H1111.32C1112.81 126.552 1114.02 127.762 1114.02 129.255C1114.02 130.747 1112.81 131.958 1111.32 131.958H1105.78C1104.29 131.958 1103.08 130.747 1103.08 129.255C1103.08 127.762 1104.29 126.552 1105.78 126.552Z" fill="#CC60A9"/>
<path d="M1089.45 107.843H1094.99C1096.48 107.843 1097.69 109.053 1097.69 110.546C1097.69 112.039 1096.48 113.249 1094.99 113.249H1089.45C1087.96 113.249 1086.75 112.039 1086.75 110.546C1086.75 109.053 1087.96 107.843 1089.45 107.843Z" fill="#CD61AA"/>
<path d="M1143.51 49.9237V55.4615C1143.51 56.9543 1142.3 58.1645 1140.8 58.1645C1139.31 58.1645 1138.1 56.9543 1138.1 55.4615V49.9237C1138.1 48.4309 1139.31 47.2207 1140.8 47.2207C1142.3 47.2207 1143.51 48.4309 1143.51 49.9237Z" fill="#CA61A9"/>
<path d="M1143.51 88.2333V93.771C1143.51 95.2639 1142.3 96.474 1140.8 96.474C1139.31 96.474 1138.1 95.2639 1138.1 93.771V88.2333C1138.1 86.7405 1139.31 85.5303 1140.8 85.5303C1142.3 85.5303 1143.51 86.7405 1143.51 88.2333Z" fill="#418DD1"/>
<path d="M1143.51 126.483V132.021C1143.51 133.514 1142.3 134.724 1140.8 134.724C1139.31 134.724 1138.1 133.514 1138.1 132.021V126.483C1138.1 124.991 1139.31 123.78 1140.8 123.78C1142.3 123.78 1143.51 124.991 1143.51 126.483Z" fill="#CAC5D1"/>
<path d="M1079.96 107.779V113.317C1079.96 114.81 1078.75 116.02 1077.25 116.02C1075.76 116.02 1074.55 114.81 1074.55 113.317V107.779C1074.55 106.286 1075.76 105.076 1077.25 105.076C1078.75 105.076 1079.96 106.286 1079.96 107.779Z" fill="#CEC8D4"/>
<text fill="#35495E" fill-opacity="0.7" xml:space="preserve" style="white-space: pre" font-family="Inter" font-size="32" letter-spacing="0em"><tspan x="50" y="200.136">{{category}}</tspan></text>
<text fill="black" xml:space="preserve" style="white-space: pre" font-family="Inter" font-size="64" letter-spacing="0em"><tspan x="50" y="279.772">{{line1}} </tspan></text>
<text fill="black" xml:space="preserve" style="white-space: pre" font-family="Inter" font-size="64" letter-spacing="0em"><tspan x="50" y="356.772">{{line2}} </tspan></text>
<text fill="black" xml:space="preserve" style="white-space: pre" font-family="Inter" font-size="64" letter-spacing="0em"><tspan x="50" y="433.772">{{line3}}</tspan></text>
<path d="M1013.82 495.521C1013.82 496.27 1013.18 497.221 1011.91 498.374C1010.88 499.302 1010.06 499.826 1009.46 499.946C1009.42 499.961 1009.37 499.968 1009.33 499.968C1009.12 499.968 1008.98 499.819 1008.9 499.519L1008.52 496.06C1008.41 495.162 1008.35 494.705 1008.34 494.69V494.623L1008 494.937C1004.87 497.887 1001.68 499.542 998.434 499.901C998.06 499.946 997.693 499.968 997.334 499.968C994.414 499.968 992.325 498.276 991.067 494.892L990.708 495.229C987.623 498.164 984.381 499.744 980.982 499.968C980.742 499.983 980.51 499.991 980.286 499.991C978.055 499.991 976.303 498.973 975.03 496.936C974.865 496.682 974.715 496.412 974.581 496.128C974.042 495.019 973.772 493.829 973.772 492.556C973.772 490.28 974.656 487.907 976.422 485.436C977.965 483.325 979.732 481.73 981.723 480.652C982.727 480.068 983.782 479.739 984.89 479.664C984.935 479.664 985.033 479.664 985.182 479.664C987.219 479.664 988.439 480.203 988.843 481.281C988.963 481.595 989.023 481.955 989.023 482.359C989.023 483.272 988.671 484.103 987.967 484.852C987.279 485.571 986.455 485.93 985.497 485.93C985.347 485.945 985.242 485.953 985.182 485.953C984.748 485.953 984.291 485.766 983.812 485.391C983.198 484.942 982.584 484.672 981.97 484.583C981.761 484.568 981.536 484.56 981.297 484.56C980.218 484.56 979.582 484.77 979.387 485.189C979.492 484.949 979.462 485.009 979.298 485.369C978.878 486.312 978.669 487.308 978.669 488.356C978.669 490.482 979.395 492.219 980.847 493.567C981.776 494.45 982.779 494.945 983.857 495.049C983.977 495.064 984.142 495.072 984.351 495.072C985.864 495.072 987.331 494.742 988.754 494.084C989.203 493.874 989.525 493.672 989.719 493.477C990.079 493.118 990.393 492.392 990.663 491.298C991.097 489.621 991.561 488.304 992.055 487.345C992.774 485.968 993.777 484.635 995.065 483.347C997.461 480.951 999.737 479.724 1001.89 479.664H1002.16C1004.59 479.664 1005.8 480.577 1005.8 482.404C1005.8 483.692 1005.18 484.702 1003.94 485.436C1003.59 485.646 1003.27 485.788 1002.97 485.863C1002.81 485.908 1002.56 485.93 1002.23 485.93C1001.63 485.93 1001.08 485.736 1000.57 485.346C1000.01 484.942 999.482 484.702 998.973 484.628C998.719 484.583 998.434 484.56 998.12 484.56H997.85C996.697 484.56 996.001 485.167 995.761 486.38C995.657 486.829 995.604 487.435 995.604 488.199C995.604 490.355 996.315 492.115 997.738 493.477C998.606 494.316 999.572 494.832 1000.64 495.027C1000.79 495.057 1001.05 495.072 1001.42 495.072C1003.01 495.072 1004.53 494.683 1005.98 493.904C1006.58 493.589 1006.97 493.29 1007.15 493.005C1007.67 492.242 1007.97 491.269 1008.05 490.086C1008.14 488.633 1008.23 487.66 1008.34 487.166C1008.41 486.776 1008.51 486.394 1008.63 486.02C1009.01 484.882 1009.7 483.662 1010.72 482.359C1011.83 480.966 1012.92 480.083 1014 479.709C1014.1 479.679 1014.22 479.664 1014.36 479.664C1014.61 479.664 1014.74 479.791 1014.74 480.046C1014.74 480.36 1014.58 480.749 1014.25 481.213C1013.66 481.992 1013.28 482.891 1013.1 483.909C1013 484.598 1012.94 485.391 1012.94 486.29C1012.94 487.712 1013.15 489.973 1013.57 493.073C1013.74 494.256 1013.82 495.072 1013.82 495.521Z" fill="url(#paint7_linear_0_1)"/>
<path d="M1017.66 486.177C1017.66 485.608 1018.22 484.74 1019.35 483.572C1020.83 482.03 1022.33 480.974 1023.86 480.405C1024.5 480.165 1025.09 480.046 1025.61 480.046H1026.06C1027.11 480.046 1027.83 480.622 1028.22 481.775C1028.34 482.134 1028.4 482.471 1028.4 482.786V485.885C1028.4 486.38 1028.4 486.859 1028.4 487.323C1028.4 499.077 1027.77 507.395 1026.51 512.277C1025.78 515.092 1024.65 517.435 1023.14 519.307C1022.84 519.682 1022.5 520.078 1022.11 520.498C1021.04 521.621 1020.13 522.295 1019.37 522.519C1019.25 522.549 1019.14 522.564 1019.05 522.564C1018.8 522.564 1018.67 522.437 1018.67 522.182C1018.67 521.808 1019.08 521.074 1019.91 519.981C1020.31 519.427 1020.57 519.053 1020.67 518.858C1022.56 514.845 1023.5 505.142 1023.5 489.749C1023.5 487.937 1023.45 486.799 1023.34 486.335C1023.19 485.721 1022.89 485.301 1022.44 485.077C1022.27 484.987 1022.08 484.942 1021.88 484.942C1021.07 484.942 1020.35 485.212 1019.7 485.751C1019.2 486.185 1018.82 486.439 1018.58 486.514C1018.42 486.574 1018.24 486.604 1018.04 486.604C1017.79 486.604 1017.66 486.462 1017.66 486.177Z" fill="url(#paint8_linear_0_1)"/>
<path d="M1021.59 474.924C1021.28 474.82 1021.09 474.617 1021.03 474.318C1021.03 474.123 1021.16 473.801 1021.43 473.352L1024.47 468.164C1026.76 464.48 1028.86 462.017 1030.78 460.774C1031.93 460.025 1033.08 459.651 1034.24 459.651C1035.81 459.651 1036.95 460.205 1037.67 461.313C1038.08 461.927 1038.28 462.638 1038.28 463.447C1038.28 465.214 1037.49 466.838 1035.9 468.321C1034.99 469.174 1034.18 469.684 1033.47 469.848C1033.4 469.863 1033.32 469.871 1033.25 469.871C1032.96 469.871 1032.81 469.736 1032.8 469.466C1032.8 469.182 1032.99 468.808 1033.38 468.343C1033.92 467.699 1034.23 467.063 1034.3 466.434C1034.32 466.314 1034.33 466.187 1034.33 466.052C1034.33 465.064 1034.03 464.353 1033.43 463.919C1033.17 463.724 1032.9 463.627 1032.6 463.627C1031.41 463.627 1029.68 465.072 1027.39 467.962L1023.14 473.554C1022.77 474.004 1022.44 474.363 1022.18 474.632C1022 474.827 1021.8 474.924 1021.59 474.924Z" fill="url(#paint9_linear_0_1)"/>
<path d="M1046.43 483.909C1044.98 483.774 1043.48 483.699 1041.94 483.684C1038.8 483.684 1036.57 484.156 1035.27 485.099L1034.33 485.796C1034.09 485.93 1033.83 485.998 1033.56 485.998C1033.29 485.998 1033.16 485.855 1033.16 485.571C1033.17 484.972 1033.72 484.111 1034.8 482.988C1034.99 482.793 1035.2 482.599 1035.4 482.404C1037.37 480.607 1039.57 479.499 1042.01 479.08C1043.1 478.885 1044.41 478.788 1045.94 478.788C1048.16 478.788 1051.63 479.08 1056.36 479.664C1060.97 480.233 1064.37 480.517 1066.56 480.517C1069.64 480.517 1071.82 480.046 1073.09 479.102L1074.02 478.383C1074.24 478.249 1074.49 478.181 1074.78 478.181C1075.05 478.181 1075.18 478.309 1075.18 478.563C1075.18 479.237 1074.57 480.188 1073.34 481.416C1072.64 482.119 1071.89 482.733 1071.1 483.257C1069.24 484.5 1066.91 485.204 1064.11 485.369C1063.57 485.399 1062.99 485.414 1062.36 485.414C1060.38 485.414 1057.13 485.152 1052.61 484.628L1049.13 484.201L1048.72 484.538C1045.42 487.488 1043.14 490.22 1041.9 492.736C1040.95 494.653 1040.48 496.592 1040.48 498.553C1040.48 502.282 1041.71 505.449 1044.16 508.054C1046.31 510.345 1049 511.813 1052.25 512.457C1053.31 512.681 1054.39 512.794 1055.49 512.794C1057.93 512.794 1060.22 512.284 1062.38 511.266C1063.41 510.772 1064.33 510.181 1065.14 509.492C1065.94 508.803 1066.72 507.815 1067.5 506.527C1068.44 504.97 1068.92 503.577 1068.92 502.349C1068.92 501.436 1068.67 500.65 1068.18 499.991C1067.77 499.482 1067.53 499.085 1067.46 498.8C1067.4 498.591 1067.37 498.351 1067.37 498.082C1067.37 496.554 1068.07 495.469 1069.48 494.825C1070 494.585 1070.48 494.465 1070.92 494.465C1072.19 494.465 1073.05 495.079 1073.5 496.307C1073.71 496.876 1073.81 497.558 1073.81 498.351C1073.81 500.867 1072.33 503.989 1069.37 507.717C1068.14 509.245 1066.97 510.51 1065.86 511.513C1061.29 515.631 1056.47 517.69 1051.37 517.69C1047.62 517.69 1044.31 516.627 1041.45 514.501C1038.81 512.554 1037.04 510.053 1036.15 506.999C1035.76 505.696 1035.56 504.356 1035.56 502.978C1035.56 498.022 1038.16 492.721 1043.36 487.076C1044.22 486.132 1045.17 485.174 1046.19 484.201C1046.35 484.036 1046.43 483.939 1046.43 483.909Z" fill="url(#paint10_linear_0_1)"/>
<path d="M1051.19 475.104C1050.76 474.999 1050.51 474.752 1050.45 474.363C1050.45 474.138 1050.54 473.914 1050.7 473.689C1050.99 473.33 1052.86 471.608 1056.32 468.523C1059.67 465.543 1061.87 463.701 1062.92 462.998C1063.4 462.683 1063.83 462.526 1064.22 462.526C1065.15 462.526 1065.71 462.915 1065.91 463.694C1065.94 463.814 1065.95 463.934 1065.95 464.053C1065.95 464.607 1065.62 465.199 1064.96 465.828C1064.15 466.591 1061.98 468.179 1058.43 470.589C1054.74 473.135 1052.49 474.595 1051.67 474.969C1051.46 475.059 1051.3 475.104 1051.19 475.104Z" fill="url(#paint11_linear_0_1)"/>
<path d="M1091.76 493.679C1092.48 493.679 1093.03 493.859 1093.42 494.218C1093.81 494.578 1094.14 494.802 1094.41 494.892C1094.8 495.012 1095.31 495.072 1095.94 495.072C1096.72 495.072 1097.52 494.9 1098.34 494.555C1098.83 493.567 1099.08 492.519 1099.08 491.411C1099.08 489.299 1098.33 487.57 1096.81 486.222C1095.87 485.369 1094.81 484.837 1093.62 484.628C1093.31 484.568 1092.98 484.538 1092.64 484.538C1090.99 484.538 1089.32 485.084 1087.63 486.177C1086.89 486.642 1086.38 487.076 1086.08 487.48C1085.39 488.408 1084.93 489.591 1084.71 491.029C1084.47 492.496 1084.28 493.455 1084.15 493.904C1083.68 495.356 1082.75 496.786 1081.34 498.194C1080.3 499.227 1079.45 499.811 1078.78 499.946C1078.7 499.961 1078.63 499.968 1078.57 499.968C1078.32 499.968 1078.19 499.841 1078.19 499.587C1078.19 499.152 1078.34 498.763 1078.64 498.419C1079.08 497.924 1079.37 497.348 1079.52 496.689C1079.61 496.27 1079.68 495.768 1079.72 495.184C1079.75 494.735 1079.77 491.95 1079.77 486.829C1079.78 483.205 1079.85 480.27 1079.97 478.024C1080.19 473.637 1080.66 470.297 1081.36 468.006C1082.21 465.236 1083.69 462.81 1085.78 460.729C1086.94 459.576 1087.84 459 1088.48 459C1088.75 459 1088.88 459.134 1088.88 459.404C1088.88 459.913 1088.39 460.744 1087.4 461.897C1087.22 462.092 1087.12 462.219 1087.09 462.279C1085.52 464.989 1084.73 471.091 1084.73 480.585C1084.71 481.678 1084.71 483.085 1084.71 484.807L1084.68 486.043L1085.16 485.593C1087.18 483.617 1089.32 482.082 1091.58 480.989C1093.44 480.09 1095.17 479.641 1096.77 479.641C1098.8 479.641 1100.52 480.382 1101.91 481.865C1103.29 483.347 1103.98 485.174 1103.98 487.345C1103.98 490.28 1102.56 493.163 1099.73 495.993C1097.08 498.643 1094.43 499.968 1091.78 499.968C1089.4 499.968 1088.21 499.04 1088.21 497.183C1088.21 496.27 1088.57 495.446 1089.29 494.713C1089.98 494.024 1090.8 493.679 1091.76 493.679Z" fill="url(#paint12_linear_0_1)"/>
<path d="M1093.44 464.345C1093.16 464.345 1093.01 464.203 1092.99 463.919C1092.99 463.514 1093.36 462.908 1094.1 462.099C1095.37 460.692 1096.79 459.846 1098.36 459.561C1098.69 459.501 1099.02 459.471 1099.35 459.471C1100.77 459.471 1101.86 460.01 1102.61 461.088C1103.07 461.747 1103.3 462.504 1103.3 463.357C1103.3 466.097 1101.34 468.583 1097.42 470.814C1096.85 471.129 1096.25 471.435 1095.62 471.735C1094.74 472.169 1093.24 472.821 1091.13 473.689L1089.18 474.52C1088.67 474.745 1088.34 474.857 1088.19 474.857C1087.8 474.857 1087.59 474.677 1087.56 474.318C1087.56 473.914 1088.39 473.24 1090.05 472.297L1094.39 469.803C1097.25 468.081 1098.8 466.614 1099.04 465.401C1099.07 465.266 1099.08 465.139 1099.08 465.019C1099.08 464.63 1098.88 464.233 1098.48 463.829C1097.98 463.335 1097.3 463.088 1096.43 463.088C1095.88 463.088 1095.32 463.305 1094.75 463.739C1094.27 464.128 1093.83 464.33 1093.44 464.345Z" fill="url(#paint13_linear_0_1)"/>
<path d="M1105.98 486.604C1105.72 486.604 1105.6 486.462 1105.6 486.177C1105.6 485.578 1106.16 484.687 1107.3 483.505C1108.46 482.307 1109.67 481.401 1110.94 480.787C1112 480.293 1112.99 480.046 1113.91 480.046C1115.18 480.046 1115.96 480.847 1116.26 482.449C1116.31 482.673 1116.33 483.265 1116.33 484.223L1116.35 485.683L1116.87 485.167C1119.24 482.861 1121.56 481.251 1123.83 480.338C1124.79 479.918 1125.84 479.694 1126.98 479.664C1127.07 479.664 1127.15 479.664 1127.23 479.664C1129.35 479.664 1131.08 480.719 1132.41 482.831C1133 483.774 1133.34 484.605 1133.45 485.324C1133.51 485.324 1133.69 485.152 1133.99 484.807C1134.75 483.969 1135.82 483.078 1137.2 482.134C1139.56 480.487 1141.71 479.664 1143.62 479.664C1145.7 479.664 1147.38 480.637 1148.65 482.584C1148.83 482.853 1148.99 483.123 1149.12 483.392C1149.71 484.545 1150 485.803 1150 487.166C1150 489.726 1148.98 492.249 1146.95 494.735C1146.3 495.529 1145.56 496.292 1144.72 497.026C1142.4 498.943 1140.26 499.923 1138.3 499.968C1135.95 499.968 1134.77 499.055 1134.77 497.228C1134.77 495.985 1135.3 495.012 1136.37 494.308C1137 493.889 1137.65 493.679 1138.32 493.679C1138.92 493.679 1139.48 493.874 1140.01 494.263C1140.57 494.683 1141.11 494.93 1141.6 495.005C1141.87 495.049 1142.16 495.072 1142.48 495.072C1143.43 495.072 1144.03 494.915 1144.27 494.6C1144.33 494.54 1144.4 494.421 1144.48 494.241C1144.89 493.327 1145.1 492.347 1145.1 491.298C1145.1 489.472 1144.54 487.892 1143.42 486.559C1143.11 486.185 1142.77 485.863 1142.41 485.593C1141.51 484.905 1140.54 484.56 1139.49 484.56C1138.28 484.56 1137.17 484.905 1136.16 485.593C1135.72 485.893 1135.36 486.237 1135.11 486.627C1134.61 487.375 1133.99 488.611 1133.24 490.333C1132.66 491.68 1132.11 492.743 1131.58 493.522C1130.53 495.109 1129.25 496.502 1127.72 497.7C1126.13 498.943 1124.55 499.691 1122.98 499.946C1122.86 499.961 1122.65 499.968 1122.35 499.968C1119.88 499.894 1118.62 498.988 1118.56 497.251C1118.56 496.547 1118.8 495.843 1119.3 495.139C1119.99 494.166 1120.96 493.679 1122.22 493.679C1122.74 493.679 1123.26 493.866 1123.79 494.241C1124.39 494.69 1124.98 494.952 1125.56 495.027C1125.79 495.057 1126.03 495.072 1126.3 495.072C1127.23 495.072 1127.79 494.937 1127.99 494.668C1128.05 494.593 1128.12 494.473 1128.19 494.308C1128.57 493.41 1128.75 492.429 1128.75 491.366C1128.75 489.779 1128.28 488.311 1127.34 486.963C1126.2 485.346 1124.75 484.538 1123 484.538C1121.61 484.538 1120.21 485.062 1118.8 486.11C1118.55 486.29 1118.33 486.469 1118.15 486.649C1117.13 487.667 1116.54 489.15 1116.38 491.096C1116.35 491.501 1116.32 492.474 1116.29 494.016C1116.11 502.237 1115.43 508.571 1114.24 513.018C1114.05 513.752 1113.84 514.403 1113.61 514.972C1112.78 517.173 1111.49 519.12 1109.75 520.812C1108.57 521.965 1107.65 522.549 1106.99 522.564C1106.73 522.564 1106.61 522.437 1106.61 522.182C1106.61 521.778 1106.79 521.351 1107.15 520.902C1107.79 520.153 1108.27 519.449 1108.58 518.791C1109.17 517.563 1109.65 515.893 1110.02 513.782C1110.68 510.008 1111.09 505.898 1111.26 501.451C1111.39 498.231 1111.46 494.114 1111.46 489.097C1111.46 487.016 1111.2 485.736 1110.67 485.256C1110.45 485.047 1110.16 484.942 1109.82 484.942C1109.01 484.942 1108.28 485.212 1107.64 485.751C1107.13 486.185 1106.76 486.439 1106.52 486.514C1106.35 486.574 1106.17 486.604 1105.98 486.604Z" fill="url(#paint14_linear_0_1)"/>
<path d="M1123.54 474.902C1123.17 474.902 1122.98 474.715 1122.98 474.34C1122.98 474.146 1123.07 473.921 1123.25 473.667L1127.02 468.793C1128.6 466.786 1129.84 465.319 1130.75 464.39C1133.64 461.41 1136.25 459.921 1138.59 459.921C1140.06 459.921 1141.17 460.437 1141.91 461.47C1142.35 462.084 1142.57 462.781 1142.57 463.559C1142.57 464.922 1141.97 466.307 1140.77 467.714C1139.72 468.957 1138.64 469.706 1137.53 469.961C1137.36 470.005 1137.19 470.028 1137.04 470.028C1136.67 470.028 1136.48 469.893 1136.48 469.624C1136.48 469.429 1136.7 469.077 1137.13 468.568C1137.86 467.67 1138.25 466.809 1138.3 465.985C1138.3 465.895 1138.3 465.813 1138.3 465.738C1138.3 464.839 1138.02 464.226 1137.47 463.896C1137.26 463.761 1137 463.694 1136.7 463.694C1135.9 463.694 1134.78 464.323 1133.36 465.581C1132.43 466.389 1130.84 467.947 1128.6 470.253L1125.38 473.487C1124.49 474.355 1123.95 474.82 1123.79 474.88C1123.73 474.894 1123.65 474.902 1123.54 474.902Z" fill="url(#paint15_linear_0_1)"/>
<text fill="#35495E" fill-opacity="0.5" xml:space="preserve" style="white-space: pre" font-family="Inter" font-size="26" letter-spacing="0em"><tspan x="50" y="557.518">{{siteName}}</tspan></text>
<text fill="#35495E" fill-opacity="0.5" xml:space="preserve" style="white-space: pre; text-anchor: end;" font-family="Inter" font-size="26" letter-spacing="0em"><tspan dx="96.5%" y="557.518">{{siteDescription}}</tspan></text>
<rect y="610" width="1200" height="20" fill="url(#paint16_linear_0_1)"/>
</g>
<defs>
<linearGradient id="paint0_linear_0_1" x1="1109.62" y1="40" x2="1109.62" y2="142" gradientUnits="userSpaceOnUse">
<stop stop-color="#5D4573"/>
<stop offset="1" stop-color="#4B3E59"/>
</linearGradient>
<linearGradient id="paint1_linear_0_1" x1="1157.18" y1="54.3735" x2="1145.66" y2="54.7858" gradientUnits="userSpaceOnUse">
<stop offset="0.409" stop-color="#806E91"/>
<stop offset="1" stop-color="#806E91" stop-opacity="0"/>
</linearGradient>
<linearGradient id="paint2_linear_0_1" x1="1063.81" y1="152.264" x2="1149.23" y2="152.264" gradientUnits="userSpaceOnUse">
<stop stop-color="#D6C0EA"/>
<stop offset="1" stop-color="#DCCCED"/>
</linearGradient>
<linearGradient id="paint3_linear_0_1" x1="1104.31" y1="145.137" x2="1104.31" y2="151.167" gradientUnits="userSpaceOnUse">
<stop stop-color="#9F8CB4"/>
<stop offset="1" stop-color="#9F8CB4" stop-opacity="0"/>
</linearGradient>
<linearGradient id="paint4_linear_0_1" x1="1057.37" y1="102.632" x2="1069.25" y2="102.632" gradientUnits="userSpaceOnUse">
<stop stop-color="#4E4459"/>
<stop offset="1" stop-color="#453C4E"/>
</linearGradient>
<radialGradient id="paint5_radial_0_1" cx="0" cy="0" r="1" gradientUnits="userSpaceOnUse" gradientTransform="translate(1058.19 144.86) rotate(-90) scale(28.2429 4.97658)">
<stop stop-color="#51475C"/>
<stop offset="1" stop-color="#51475C" stop-opacity="0"/>
</radialGradient>
<linearGradient id="paint6_linear_0_1" x1="1062.58" y1="154.597" x2="1150" y2="154.457" gradientUnits="userSpaceOnUse">
<stop stop-color="#512F71"/>
<stop offset="1" stop-color="#4F2E6D"/>
</linearGradient>
<linearGradient id="paint7_linear_0_1" x1="1104.07" y1="526.609" x2="1028.51" y2="437.711" gradientUnits="userSpaceOnUse">
<stop offset="0.375425" stop-color="#8D6FC7"/>
<stop offset="1" stop-color="#4FC4D8"/>
</linearGradient>
<linearGradient id="paint8_linear_0_1" x1="1104.07" y1="526.609" x2="1028.51" y2="437.71" gradientUnits="userSpaceOnUse">
<stop offset="0.375425" stop-color="#8D6FC7"/>
<stop offset="1" stop-color="#4FC4D8"/>
</linearGradient>
<linearGradient id="paint9_linear_0_1" x1="1104.07" y1="526.609" x2="1028.51" y2="437.71" gradientUnits="userSpaceOnUse">
<stop offset="0.375425" stop-color="#8D6FC7"/>
<stop offset="1" stop-color="#4FC4D8"/>
</linearGradient>
<linearGradient id="paint10_linear_0_1" x1="1104.07" y1="526.609" x2="1028.51" y2="437.711" gradientUnits="userSpaceOnUse">
<stop offset="0.375425" stop-color="#8D6FC7"/>
<stop offset="1" stop-color="#4FC4D8"/>
</linearGradient>
<linearGradient id="paint11_linear_0_1" x1="1104.07" y1="526.609" x2="1028.51" y2="437.711" gradientUnits="userSpaceOnUse">
<stop offset="0.375425" stop-color="#8D6FC7"/>
<stop offset="1" stop-color="#4FC4D8"/>
</linearGradient>
<linearGradient id="paint12_linear_0_1" x1="1104.07" y1="526.609" x2="1028.51" y2="437.711" gradientUnits="userSpaceOnUse">
<stop offset="0.375425" stop-color="#8D6FC7"/>
<stop offset="1" stop-color="#4FC4D8"/>
</linearGradient>
<linearGradient id="paint13_linear_0_1" x1="1104.07" y1="526.609" x2="1028.51" y2="437.711" gradientUnits="userSpaceOnUse">
<stop offset="0.375425" stop-color="#8D6FC7"/>
<stop offset="1" stop-color="#4FC4D8"/>
</linearGradient>
<linearGradient id="paint14_linear_0_1" x1="1104.07" y1="526.609" x2="1028.51" y2="437.711" gradientUnits="userSpaceOnUse">
<stop offset="0.375425" stop-color="#8D6FC7"/>
<stop offset="1" stop-color="#4FC4D8"/>
</linearGradient>
<linearGradient id="paint15_linear_0_1" x1="1104.07" y1="526.609" x2="1028.51" y2="437.711" gradientUnits="userSpaceOnUse">
<stop offset="0.375425" stop-color="#8D6FC7"/>
<stop offset="1" stop-color="#4FC4D8"/>
</linearGradient>
<linearGradient id="paint16_linear_0_1" x1="0" y1="620" x2="1200" y2="620" gradientUnits="userSpaceOnUse">
<stop stop-color="#4FC4D8"/>
<stop offset="0.7" stop-color="#8D6FC7"/>
</linearGradient>
<clipPath id="clip0_0_1">
<rect width="1200" height="630" fill="white"/>
</clipPath>
</defs>
</svg>
